<svg height="511pt" viewBox="-61 1 511 511.99999" width="511pt" xmlns="http://www.w3.org/2000/svg"><path d="m361.285156 389.519531h-10.25v-370.953125c0-10.238281-8.328125-18.566406-18.566406-18.566406h-125.253906c-4.214844 0-7.617188 3.414062-7.617188 7.617188 0 4.207031 3.402344 7.617187 7.617188 7.617187h125.253906c1.835938 0 3.332031 1.496094 3.332031 3.332031v370.953125h-232.589843c-15.042969 0-27.28125 12.230469-27.28125 27.273438v50.300781c0 17.964844-16.398438 31.128906-29.609376 29.660156-15.648437 0-30.0625-12.90625-30.585937-30.15625.019531-289.417968.023437-327.046875.023437-330.953125 0-.289062 0-.398437 0-.402343v-.007813h96.933594c18.351563 0 33.292969-14.941406 33.292969-33.292969v-86.707031h30.757813c4.207031 0 7.617187-3.410156 7.617187-7.617187 0-4.203126-3.410156-7.617188-7.617187-7.617188h-33.507813c-5.050781 0-9.847656 1.875-13.613281 5.3125-130.195313 120.476562-125.058594 113.753906-127.304688 119.511719-1.175781 2.570312-1.796875 5.414062-1.796875 8.257812 0 36.445313-.015625 297.199219-.019531 333.898438.726562 25.109375 21.328125 45.019531 46.347656 45.019531 84.640625 0 63.097656-.011719 296.570313 0 .0625 0 .132812 0 .191406-.011719h.050781c14.128906 0 27.628906-6.824219 36.089844-18.25 2.511719-3.382812 1.800781-8.148437-1.582031-10.65625-3.375-2.5-8.148438-1.796875-10.65625 1.585938-4.105469 5.535156-9.976563 9.433593-16.476563 11.128906-5.246094 1.386719 17.292969.957031-270.910156.957031 6.90625-7.972656 11.042969-18.386718 11.042969-29.660156v-50.300781c0-6.632813 5.402343-12.035157 12.042969-12.035157h258.074218c6.644532 0 12.046875 5.402344 12.046875 12.035157v43.527343c0 4.203126 3.414063 7.617188 7.617188 7.617188 4.207031 0 7.617187-3.414062 7.617187-7.617188v-43.527343c0-15.042969-12.238281-27.273438-27.28125-27.273438zm-230.535156-364.523437v76.945312c0 9.953125-8.105469 18.058594-18.058594 18.058594h-85.039062zm0 0"/><path d="m299.445312 343.476562h-172.675781c-4.207031 0-7.621093 3.414063-7.621093 7.617188 0 4.207031 3.414062 7.617188 7.621093 7.617188h172.675781c4.207032 0 7.617188-3.410157 7.617188-7.617188 0-4.203125-3.410156-7.617188-7.617188-7.617188zm0 0"/><path d="m51.277344 343.476562c-4.207032 0-7.617188 3.414063-7.617188 7.617188 0 4.207031 3.410156 7.617188 7.617188 7.617188h45.019531c4.203125 0 7.617187-3.410157 7.617187-7.617188 0-4.203125-3.414062-7.617188-7.617187-7.617188zm0 0"/><path d="m299.445312 295.054688h-248.167968c-4.210938 0-7.621094 3.410156-7.621094 7.617187 0 4.210937 3.410156 7.617187 7.621094 7.617187h248.167968c4.207032 0 7.617188-3.40625 7.617188-7.617187 0-4.207031-3.410156-7.617187-7.617188-7.617187zm0 0"/><path d="m299.445312 246.628906h-248.167968c-4.210938 0-7.621094 3.410156-7.621094 7.621094 0 4.207031 3.410156 7.617188 7.621094 7.617188h248.167968c4.207032 0 7.617188-3.410157 7.617188-7.617188 0-4.210938-3.410156-7.621094-7.617188-7.621094zm0 0"/><path d="m299.445312 198.203125h-45.015624c-4.207032 0-7.621094 3.414063-7.621094 7.617187 0 4.21875 3.414062 7.621094 7.621094 7.621094h45.015624c4.207032 0 7.617188-3.402344 7.617188-7.621094 0-4.203124-3.410156-7.617187-7.617188-7.617187zm0 0"/><path d="m51.277344 213.441406h172.679687c4.203125 0 7.617188-3.402344 7.617188-7.621094 0-4.203124-3.414063-7.617187-7.617188-7.617187h-172.679687c-4.207032 0-7.617188 3.414063-7.617188 7.617187 0 4.21875 3.410156 7.621094 7.617188 7.621094zm0 0"/><path d="m299.445312 149.785156h-248.167968c-4.210938 0-7.621094 3.410156-7.621094 7.617188 0 4.207031 3.410156 7.617187 7.621094 7.617187h248.167968c4.207032 0 7.617188-3.410156 7.617188-7.617187 0-4.207032-3.410156-7.617188-7.617188-7.617188zm0 0"/><path d="m299.445312 101.359375h-118.03125c-4.207031 0-7.617187 3.410156-7.617187 7.617187 0 4.210938 3.410156 7.621094 7.617187 7.621094h118.03125c4.207032 0 7.617188-3.410156 7.617188-7.621094 0-4.207031-3.410156-7.617187-7.617188-7.617187zm0 0"/><path d="m299.445312 52.9375h-118.03125c-4.207031 0-7.617187 3.410156-7.617187 7.617188 0 4.207031 3.410156 7.617187 7.617187 7.617187h118.03125c4.207032 0 7.617188-3.410156 7.617188-7.617187 0-4.207032-3.410156-7.617188-7.617188-7.617188zm0 0"/></svg>